<svg xmlns="http://www.w3.org/2000/svg" width="256" height="256" viewBox="0 0 100 100"><rect width="100" height="100" rx="0" fill="#a52a2a"></rect><path d="M54.05 28.58L39.20 28.58L39.20 76.91Q38.75 77.09 37.80 77.31Q36.86 77.54 35.87 77.54L35.87 77.54Q31.91 77.54 31.91 74.21L31.91 74.21L31.91 28.58L15.08 28.58Q14.81 28.13 14.54 27.37Q14.27 26.60 14.27 25.61L14.27 25.61Q14.27 24.08 14.99 23.23Q15.71 22.37 17.06 22.37L17.06 22.37L56.03 22.37Q56.30 22.82 56.57 23.59Q56.84 24.35 56.84 25.25L56.84 25.25Q56.84 26.78 56.12 27.68Q55.40 28.58 54.05 28.58L54.05 28.58ZM78.44 22.55L78.44 22.55Q78.89 22.37 79.83 22.15Q80.78 21.92 81.77 21.92L81.77 21.92Q85.73 21.92 85.73 25.25L85.73 25.25L85.73 63.77Q85.73 67.82 84.56 70.56Q83.39 73.31 81.36 74.98Q79.34 76.64 76.69 77.36Q74.03 78.08 71.15 78.08L71.15 78.08Q66.02 78.08 63.68 76.87Q61.34 75.65 61.34 73.67L61.34 73.67Q61.34 72.41 61.88 71.51Q62.42 70.61 62.87 70.16L62.87 70.16Q64.22 70.79 66.11 71.33Q68 71.87 70.07 71.87L70.07 71.87Q74.12 71.87 76.28 69.94Q78.44 68 78.44 63.41L78.44 63.41L78.44 22.55Z" fill="#fff"></path></svg>