<svg xmlns="http://www.w3.org/2000/svg" width="100" height="100" viewBox="0 0 100 100">
 <g id="Layer_1">
  <title>Layer 1</title>
  <rect x="0" y="0.05429" width="100" height="100" fill="#7d6ee7" id="svg_2"/>
  <path transform="rotate(-61.7753 56.0833 56.5659)" id="svg_3" d="m74.58829,35.19087l-14.86,0l0,48.32q-0.44,0.19 -1.39,0.41q-0.95,0.23 -1.94,0.23l0,0q-3.95,0 -3.95,-3.33l0,0l0,-45.63l-16.84,0q-0.27,-0.45 -0.54,-1.22q-0.27,-0.76 -0.27,-1.75l0,0q0,-1.53 0.72,-2.39q0.73,-0.85 2.07,-0.85l0,0l38.97,0q0.28,0.45 0.55,1.21q0.26,0.77 0.26,1.67l0,0q0,1.53 -0.72,2.43q-0.72,0.9 -2.06,0.9l0,0z" fill="#fff"/>
  <path stroke="null" id="svg_1" d="m52.85064,18.42319l0,0q0.45,-0.18 1.39,-0.4q0.94,-0.23 1.93,-0.23l0,0q3.97,0 3.97,3.33l0,0l0,38.52q0,4.05 -1.18,6.79q-1.16,2.75 -3.19,4.42q-2.03,1.66 -4.68,2.38q-2.66,0.72 -5.54,0.72l0,0q-5.13,0 -7.47,-1.21q-2.34,-1.22 -2.34,-3.2l0,0q0,-1.26 0.54,-2.16q0.54,-0.9 1,-1.35l0,0q1.35,0.63 3.24,1.17q1.89,0.54 3.95,0.54l0,0q4.06,0 6.21,-1.93q2.17,-1.94 2.17,-6.53l0,0l0,-40.86z" fill="#fff"/>
 </g>
</svg>